<?xml version="1.0" encoding="UTF-8"?>
<svg width="150px" height="140px" viewBox="0 0 150 140" version="1.1" xmlns="http://www.w3.org/2000/svg" xmlns:xlink="http://www.w3.org/1999/xlink">
    <!-- Generator: Sketch 53.2 (72643) - https://sketchapp.com -->
    <title></title>
    <desc>Created with Sketch.</desc>
    <g id="Page-1" stroke="none" stroke-width="1" fill="none" fill-rule="evenodd">
        <g id="Ignorance-Blocker" transform="translate(-645.000000, -166.000000)" fill="#DC3545" fill-rule="nonzero">
            <path d="M730.705494,281.095003 L730.705494,265.190966 C730.705494,263.684268 729.533617,262.428686 728.026919,262.428686 L711.955471,262.428686 C710.448773,262.428686 709.276897,263.684268 709.276897,265.190966 L709.276897,281.095003 C709.276897,282.601701 710.448773,283.857283 711.955471,283.857283 L728.026919,283.857283 C729.533617,283.857283 730.705494,282.601701 730.705494,281.095003 Z M730.538083,249.789162 L732.044781,211.368358 C732.044781,210.866125 731.793665,210.196481 731.207727,209.777954 C730.705494,209.359427 729.952145,208.857194 729.198796,208.857194 L710.783595,208.857194 C710.030246,208.857194 709.276897,209.359427 708.774664,209.777954 C708.188726,210.196481 707.93761,211.033536 707.93761,211.535769 L709.360602,249.789162 C709.360602,250.877333 710.616184,251.714388 712.206588,251.714388 L727.692097,251.714388 C729.198796,251.714388 730.454377,250.877333 730.538083,249.789162 Z M729.366206,171.608266 L793.651997,289.465549 C795.493517,292.730062 795.409812,296.747924 793.484586,300.012437 C791.559361,303.276949 788.043732,305.28588 784.276986,305.28588 L655.705404,305.28588 C651.938659,305.28588 648.42303,303.276949 646.497804,300.012437 C644.572579,296.747924 644.488873,292.730062 646.330393,289.465549 L710.616184,171.608266 C712.457704,168.176342 716.057039,166 719.991195,166 C723.925352,166 727.524686,168.176342 729.366206,171.608266 Z" id=""></path>
        </g>
    </g>
</svg>